<?xml version="1.0" encoding="UTF-8" standalone="no"?>
<!-- Created with Inkscape (http://www.inkscape.org/) -->

<svg
   width="210mm"
   height="297mm"
   viewBox="0 0 210 297"
   version="1.1"
   id="svg15619"
   inkscape:version="1.2.1 (9c6d41e, 2022-07-14)"
   sodipodi:docname="badflower.svg"
   xmlns:inkscape="http://www.inkscape.org/namespaces/inkscape"
   xmlns:sodipodi="http://sodipodi.sourceforge.net/DTD/sodipodi-0.dtd"
   xmlns="http://www.w3.org/2000/svg"
   xmlns:svg="http://www.w3.org/2000/svg">
  <sodipodi:namedview
     id="namedview15621"
     pagecolor="#505050"
     bordercolor="#eeeeee"
     borderopacity="1"
     inkscape:showpageshadow="0"
     inkscape:pageopacity="0"
     inkscape:pagecheckerboard="0"
     inkscape:deskcolor="#505050"
     inkscape:document-units="px"
     showgrid="false"
     inkscape:zoom="1"
     inkscape:cx="235.5"
     inkscape:cy="481"
     inkscape:window-width="1440"
     inkscape:window-height="872"
     inkscape:window-x="0"
     inkscape:window-y="28"
     inkscape:window-maximized="0"
     inkscape:current-layer="layer1" />
  <defs
     id="defs15616">
    <inkscape:perspective
       sodipodi:type="inkscape:persp3d"
       inkscape:vp_x="0 : 148.5 : 1"
       inkscape:vp_y="0 : 1000 : 0"
       inkscape:vp_z="210 : 148.5 : 1"
       inkscape:persp3d-origin="105 : 99 : 1"
       id="perspective16784" />
  </defs>
  <g
     inkscape:label="Layer 1"
     inkscape:groupmode="layer"
     id="layer1">
    <path
       id="rect16852"
       style="opacity:1;fill:#19ff19;stroke-width:0.264583"
       d="m 118.22915,108.91982 h 10e-6 c 0.96373,0 1.73959,0.77586 1.73959,1.73959 v 38.85416 c 0,0.96373 -0.77586,1.73958 -1.73959,1.73958 h -10e-6 c -0.96373,0 -1.73959,-0.77585 -1.73959,-1.73958 v -38.85416 c 0,-0.96373 0.77586,-1.73959 1.73959,-1.73959 z" />
    <path
       id="rect18572"
       style="opacity:1;fill:#ffffff;stroke-width:0.264583"
       d="m 153.23126,93.289659 -0.002,0.529161 c -0.004,0.963727 -0.78289,1.736444 -1.74661,1.732539 l -20.02433,-0.08103 c -0.96371,-0.0039 -1.73643,-0.782892 -1.73254,-1.746617 l 0.002,-0.529162 c 0.004,-0.96372 0.78289,-1.736439 1.74661,-1.732539 l 20.02433,0.08103 c 0.96371,0.0039 1.73643,0.782894 1.73254,1.746616 z" />
    <path
       id="path16670"
       style="opacity:1;fill:#ffff00;stroke-width:0.154592"
       d="m 131.45832,95.470329 a 13.229167,13.449491 0 0 1 -13.22916,13.449491 13.229167,13.449491 0 0 1 -13.22917,-13.449491 13.229167,13.449491 0 0 1 13.22917,-13.44949 13.229167,13.449491 0 0 1 13.22916,13.44949 z" />
    <path
       id="path18637"
       style="opacity:1;fill:#ffffff;stroke-width:0.264583"
       d="m 148.62128,115.16875 -0.29132,0.44176 c -0.53057,0.80453 -1.60541,1.02509 -2.40994,0.49452 l -16.71667,-11.0242 c -0.80453,-0.53057 -1.02509,-1.60541 -0.49452,-2.40994 l 0.29132,-0.44176 c 0.53057,-0.80453 1.60541,-1.02509 2.40994,-0.49452 l 16.71667,11.02421 c 0.80453,0.53056 1.02509,1.6054 0.49452,2.40993 z" />
    <path
       id="path18639"
       style="opacity:1;fill:#ffffff;stroke-width:0.264583"
       d="m 118.76576,82.018824 -0.52916,0.002 c -0.96373,0.004 -1.74242,-0.76949 -1.74595,-1.73322 l -0.0733,-20.02435 c -0.004,-0.96372 0.76949,-1.74242 1.73322,-1.74594 l 0.52916,-0.002 c 0.96373,-0.004 1.74242,0.76949 1.74594,1.73322 l 0.0733,20.02435 c 0.004,0.96372 -0.76947,1.74242 -1.7332,1.74594 z" />
    <path
       id="path18641"
       style="opacity:1;fill:#ffffff;stroke-width:0.264583"
       d="m 146.37506,73.987751 0.21598,0.483079 c 0.39334,0.879805 0.002,1.904767 -0.87808,2.298119 l -18.28063,8.173036 c -0.8798,0.393351 -1.90477,0.0017 -2.29812,-0.87808 l -0.21598,-0.483079 c -0.39334,-0.879805 -0.002,-1.904767 0.87808,-2.298119 l 18.28064,-8.173037 c 0.87979,-0.39335 1.90476,-0.0017 2.29811,0.878081 z" />
    <path
       id="path18643"
       style="opacity:1;fill:#ffffff;stroke-width:0.264583"
       d="m 106.98853,102.03725 0.34971,0.39714 c 0.63688,0.72329 0.56732,1.81832 -0.15597,2.4552 L 92.153637,118.1229 c -0.72329,0.63689 -1.81831,0.56733 -2.4552,-0.15596 l -0.34971,-0.39715 c -0.63688,-0.72329 -0.56732,-1.81832 0.15597,-2.4552 l 15.028633,-13.23331 c 0.72329,-0.63689 1.81831,-0.56733 2.4552,0.15597 z" />
    <path
       id="path18645"
       style="opacity:1;fill:#ffffff;stroke-width:0.264583"
       d="m 110.09298,84.181206 -0.3675,0.380736 c -0.66939,0.693327 -1.76645,0.71262 -2.45977,0.04325 L 92.859478,70.696901 c -0.693306,-0.669409 -0.712632,-1.766437 -0.04326,-2.459778 l 0.367503,-0.380735 c 0.669375,-0.693331 1.766437,-0.712622 2.459773,-0.04325 l 14.406216,13.908297 c 0.69331,0.669409 0.71264,1.766429 0.0433,2.459771 z" />
    <path
       id="path18647"
       style="opacity:1;fill:#ffffff;stroke-width:0.264583"
       d="m 105.53606,93.160059 -0.007,0.52912 c -0.0127,0.96365 -0.79865,1.72925 -1.76229,1.71659 l -20.022764,-0.263 c -0.963645,-0.0127 -1.729252,-0.79864 -1.716592,-1.76229 l 0.0069,-0.52912 c 0.01266,-0.96365 0.798646,-1.72925 1.762292,-1.71659 l 20.022764,0.26301 c 0.96364,0.0127 1.72925,0.79863 1.71659,1.76228 z" />
  </g>
</svg>
